<svg width="32" height="32" viewBox="0 0 32 32" fill="none" xmlns="http://www.w3.org/2000/svg">
<path d="M10.923 9.18548C13.2599 6.58845 15.0187 3.46019 16.0002 0C16.9817 3.46003 18.7405 6.58817 21.0771 9.18513L15.9999 14.2624L10.923 9.18548Z" fill="black"/>
<path d="M9.1851 10.9234C6.58819 13.2599 3.46015 15.0186 0.000244141 16C3.46027 16.9815 6.58842 18.7402 9.18538 21.0769L14.262 16.0003L9.1851 10.9234Z" fill="black"/>
<path d="M10.9233 22.8148C13.26 25.4118 15.0188 28.5399 16.0002 32C16.9817 28.5401 18.7403 25.4121 21.0769 22.8152L15.9999 17.7382L10.9233 22.8148Z" fill="black"/>
<path d="M22.8148 21.0772C25.4118 18.7404 28.5401 16.9815 32.0002 16C28.5402 15.0185 25.412 13.2598 22.815 10.9231L17.7378 16.0003L22.8148 21.0772Z" fill="black"/>
</svg>
